<svg xmlns="http://www.w3.org/2000/svg" width="600" height="200">
  <rect width="100%" height="100%" fill="#FFFFFF" />
  
  <!-- Line -->
  <line x1="50" y1="100" x2="550" y2="100" stroke="#000" stroke-width="3" />
  <!-- Arrows -->
  <polygon points="50,100 65,95 65,105" fill="#000" />
  <polygon points="550,100 535,95 535,105" fill="#000" />

  <!-- Ticks -2 to 2 -->
  <line x1="150" y1="90" x2="150" y2="110" stroke="#000" stroke-width="2" />
  <text x="145" y="130" font-family="Arial" font-size="16">-2</text>
  
  <line x1="250" y1="90" x2="250" y2="110" stroke="#000" stroke-width="2" />
  <text x="245" y="130" font-family="Arial" font-size="16">-1</text>
  
  <line x1="350" y1="90" x2="350" y2="110" stroke="#000" stroke-width="2" />
  <text x="345" y="130" font-family="Arial" font-size="16">0</text>
  
  <line x1="450" y1="90" x2="450" y2="110" stroke="#000" stroke-width="2" />
  <text x="445" y="130" font-family="Arial" font-size="16">1</text>
  
  <!-- 1.5 Tick (Medium) -->
  <line x1="500" y1="95" x2="500" y2="105" stroke="#1565C0" stroke-width="2" />
  <text x="490" y="145" font-family="Arial" font-size="14" fill="#1565C0">1.5</text>
  
  <!-- sqrt(2) tick (~1.414 -> between 1 and 1.5) -->
  <line x1="491.4" y1="80" x2="491.4" y2="100" stroke="#D32F2F" stroke-width="2" />
  <polygon points="491.4,100 487.4,90 495.4,90" fill="#D32F2F" />
  <text x="475" y="70" font-family="Arial" font-size="14" fill="#D32F2F" font-weight="bold">√2 (~1.41)</text>

</svg>